<?xml version="1.0" encoding="utf-8"?>
<!-- Generator: Adobe Illustrator 15.0.2, SVG Export Plug-In . SVG Version: 6.00 Build 0)  -->
<!DOCTYPE svg PUBLIC "-//W3C//DTD SVG 1.1//EN" "http://www.w3.org/Graphics/SVG/1.1/DTD/svg11.dtd">
<svg version="1.1" id="Layer_1" xmlns="http://www.w3.org/2000/svg" xmlns:xlink="http://www.w3.org/1999/xlink" x="0px" y="0px"
	 width="483.523px" height="55.053px" viewBox="0 0 483.523 55.053" enable-background="new 0 0 483.523 55.053"
	 xml:space="preserve">
<g>
	<g>
		<path fill="#FFFFFF" d="M33.163,1.483v8.8H21.555v43.256h-9.948V10.283H0v-8.8H33.163z"/>
		<path fill="#FFFFFF" d="M45.413,53.539V1.483h9.95V22.25H69.42V1.483h9.947v52.056H69.42V31.043H55.363v22.496H45.413z"/>
		<path fill="#FFFFFF" d="M94.647,53.539V1.483h27.249v8.8h-17.301V22.25h13.196v8.792h-13.196v13.699h18.026v8.797H94.647z"/>
		<path fill="#FFFFFF" d="M184.251,15.976c-1.659-4.902-3.823-6.994-7.284-6.994c-3.532,0-5.479,2.165-5.479,5.697
			c0,7.857,22.207,8.433,22.207,24.729c0,8.939-6.129,14.852-16.582,14.852c-8.081,0-14.348-4.4-17.019-14.637l9.807-2.092
			c1.156,6.275,4.759,8.508,7.717,8.508c3.46,0,6.126-2.307,6.126-6.199c0-9.805-22.207-9.947-22.207-24.514
			c0-8.941,5.335-14.564,15.646-14.564c8.869,0,14.274,5.265,16.005,12.616L184.251,15.976z"/>
		<path fill="#FFFFFF" d="M208.68,53.539V1.483h14.348c12.261,0,18.244,5.77,18.244,15.573c0,9.808-5.983,15.575-18.244,15.575
			h-4.396v20.908H208.68z M218.631,24.411h5.333c4.907,0,7.357-2.45,7.357-7.355c0-4.901-2.451-7.353-7.357-7.353h-5.333V24.411z"/>
		<path fill="#FFFFFF" d="M247.76,53.539l12.91-52.056h12.758l12.547,52.056h-9.518l-2.523-10.959h-13.768l-2.814,10.959H247.76z
			 M261.965,33.783h9.881l-4.83-21.052h-0.148L261.965,33.783z"/>
	</g>
	<g>
		<path fill="#FFFFFF" d="M339.023,18.651L343.777,0h4.701l4.627,18.651h-3.51l-0.93-3.929h-5.076l-1.031,3.929H339.023z
			 M344.26,11.575h3.635l-1.777-7.546h-0.053L344.26,11.575z"/>
		<path fill="#FFFFFF" d="M370.066,0v3.147h-4.281v15.504h-3.662V3.147h-4.275V0H370.066z"/>
		<path fill="#FFFFFF" d="M341.117,54.674V27.026h14.182v4.669h-8.742v6.359h6.854v4.668h-6.854v11.951H341.117z"/>
		<path fill="#FFFFFF" d="M366.016,35.912c0-6.82,3.705-9.27,8.982-9.27c5.279,0,8.982,2.45,8.982,9.27v9.877
			c0,6.814-3.703,9.264-8.982,9.264c-5.277,0-8.982-2.449-8.982-9.264V35.912z M371.455,46.477c0,3.064,1.379,3.908,3.543,3.908
			s3.547-0.844,3.547-3.908V35.219c0-3.062-1.383-3.902-3.547-3.902s-3.543,0.84-3.543,3.902V46.477z"/>
		<path fill="#FFFFFF" d="M409.029,54.674l-4.721-11.26h-2.604v11.26h-5.438V27.026h7.879c6.543,0,9.652,3.066,9.652,8.269
			c0,3.447-1.26,5.938-4.291,7.047l5.359,12.332H409.029z M401.705,39.047h2.799c2.4,0,3.861-1.148,3.861-3.828
			s-1.461-3.826-3.861-3.826h-2.799V39.047z"/>
		<path fill="#FFFFFF" d="M426.367,54.674V27.026h7.604l4.922,18.15h0.08l4.922-18.15h7.605v27.648h-4.652V32.922h-0.072
			l-5.797,21.752h-4.092l-5.793-21.752h-0.078v21.752H426.367z"/>
		<path fill="#FFFFFF" d="M462.646,54.674l7.051-27.648h6.973l6.854,27.648h-5.193l-1.383-5.824h-7.527l-1.533,5.824H462.646z
			 M470.406,44.182h5.398l-2.641-11.184h-0.078L470.406,44.182z"/>
	</g>
	<rect x="311.297" y="0.64" fill="#C59436" width="4.062" height="53.548"/>
</g>
</svg>
